<svg version="1.1" preserveAspectRatio="none" xmlns="http://www.w3.org/2000/svg" width="210" height="45" viewBox="0 0 500 500"><svg viewBox="345.3436 153.5061 349.7613 65.6576" width="410" height="390.2797273454782" x="41.5px" y="60.8601px" xmlns="http://www.w3.org/2000/svg" xmlns:xlink="http://www.w3.org/1999/xlink" preserveAspectRatio="none"><defs></defs><style>.a5kldYRpCPfillColora32461de-f36a-40dc-8ccf-124805636338 {fill:#FFFFFF;fill-opacity:1;}.aaY2IAwvp1colors-0a32461de-f36a-40dc-8ccf-124805636338 {fill:#10E77B;fill-opacity:1;}.aD6z1nYkhcolora32461de-f36a-40dc-8ccf-124805636338 {fill:#10E77B;fill-opacity:1;}.aD6z1nYkhstrokeColor-stra32461de-f36a-40dc-8ccf-124805636338 {stroke:#FFFFFF;stroke-opacity:1;}.agefqfQdVNcolors-0a32461de-f36a-40dc-8ccf-124805636338 {fill:#10E77B;fill-opacity:1;}.aIvuNJ-UgW0filter-flooa32461de-f36a-40dc-8ccf-124805636338 {flood-color:#15FF8A;flood-opacity:0.5;}.amX2oaRSWw0filter-flooa32461de-f36a-40dc-8ccf-124805636338 {flood-color:#FFFFFF;flood-opacity:0.3;}.aq6WP-wJgVfillColora32461de-f36a-40dc-8ccf-124805636338 {fill:#FFFFFF;fill-opacity:1;}.aq6WP-wJgVstrokeColor-stra32461de-f36a-40dc-8ccf-124805636338 {stroke:#12B865;stroke-opacity:1;}.aQLiE0gkQu0filter-flooa32461de-f36a-40dc-8ccf-124805636338 {flood-color:#F1F1F1;flood-opacity:0.5;}.aQUSWgH84z0filter-flooa32461de-f36a-40dc-8ccf-124805636338 {flood-color:#000000;flood-opacity:0.5;}.arW6oJydob0filter-flooa32461de-f36a-40dc-8ccf-124805636338 {flood-color:#03D069;flood-opacity:0.23;}.auA7iYLO4l0filter-flooa32461de-f36a-40dc-8ccf-124805636338 {flood-color:#15FF8A;flood-opacity:0.5;}.ayEA2V4CpSl0filter-flooa32461de-f36a-40dc-8ccf-124805636338 {flood-color:#FFFFFF;flood-opacity:0.35;}.icon2a32461de-f36a-40dc-8ccf-124805636338 {fill:#776730;fill-opacity:1;}.icon3a32461de-f36a-40dc-8ccf-124805636338 {fill:#B6B5B5;fill-opacity:1;}.icon4a32461de-f36a-40dc-8ccf-124805636338 {fill:#03D0C6;fill-opacity:1;}.icon5a32461de-f36a-40dc-8ccf-124805636338 {fill:#FFC019;fill-opacity:1;}.icon6a32461de-f36a-40dc-8ccf-124805636338 {fill:#FF5606;fill-opacity:1;}.icon7a32461de-f36a-40dc-8ccf-124805636338 {fill:#000C9C;fill-opacity:1;}.icon8a32461de-f36a-40dc-8ccf-124805636338 {fill:#776730;fill-opacity:1;}.shapeStroke-stra32461de-f36a-40dc-8ccf-124805636338 {stroke:#12B865;stroke-opacity:1;}</style><defs>
      <filter
        x="396.8953"
        y="168.1803"
        width="298.2096"
        height="37.9285"
        id="a32461de-f36a-40dc-8ccf-124805636338mX2oaRSWw"
        filterUnits="userSpaceOnUse"
        primitiveUnits="userSpaceOnUse"
        color-interpolation-filters="sRGB">
        <feMerge><feMergeNode in="SourceGraphic" /></feMerge>
      </filter>
      <filter
        x="392.0741"
        y="217.5061"
        width="142.6394"
        height="1.6576"
        id="a32461de-f36a-40dc-8ccf-124805636338uA7iYLO4l"
        filterUnits="userSpaceOnUse"
        primitiveUnits="userSpaceOnUse"
        color-interpolation-filters="sRGB">
        <feMerge><feMergeNode in="SourceGraphic" /></feMerge>
      </filter>
      <filter
        x="553.1049"
        y="153.5061"
        width="142"
        height="1.6576"
        id="a32461de-f36a-40dc-8ccf-124805636338IvuNJ-UgW"
        filterUnits="userSpaceOnUse"
        primitiveUnits="userSpaceOnUse"
        color-interpolation-filters="sRGB">
        <feMerge><feMergeNode in="SourceGraphic" /></feMerge>
      </filter>
      <filter
        x="480.8619"
        y="153.5061"
        width="101.3304"
        height="52.6027"
        id="a32461de-f36a-40dc-8ccf-124805636338rW6oJydob"
        filterUnits="userSpaceOnUse"
        primitiveUnits="userSpaceOnUse"
        color-interpolation-filters="sRGB">
        <feMerge><feMergeNode in="SourceGraphic" /></feMerge>
      </filter>
      <filter
        x="345.3436"
        y="168.1803"
        width="37.7305"
        height="37.9285"
        id="a32461de-f36a-40dc-8ccf-124805636338yEA2V4CpSl"
        filterUnits="userSpaceOnUse"
        primitiveUnits="userSpaceOnUse"
        color-interpolation-filters="sRGB">
        <feMerge><feMergeNode in="SourceGraphic" /></feMerge>
      </filter></defs><g opacity="1" transform="rotate(0 392.0741 217.5061)">
<svg width="142.6394" height="1.6576" x="392.0741" y="217.5061" version="1.1" preserveAspectRatio="none" viewBox="0 0 142.6394 1.6576">
  <defs><rect x="0" y="0" width="142.6394" height="1.6576" rx="0px" ry="0px" id="id-a32461de-f36a-40dc-8ccf-1248056363385kldYRpCP1675985779044"></rect></defs><use class="a5kldYRpCPfillColora32461de-f36a-40dc-8ccf-124805636338 shapeStroke-stra32461de-f36a-40dc-8ccf-124805636338" style="stroke-width:0;" xlink:href="#id-a32461de-f36a-40dc-8ccf-1248056363385kldYRpCP1675985779044"></use>
</svg>
</g><g opacity="1" transform="rotate(0 396.8953 168.1803)">
<svg width="298.2096" height="37.9285" x="396.8953" y="168.1803" version="1.1" preserveAspectRatio="none" viewBox="2.76 -28.56 296.88000000000005 37.760000000000005">
  <g transform="matrix(1 0 0 1 0 0)" class="aD6z1nYkhcolora32461de-f36a-40dc-8ccf-124805636338"><path id="id-a32461de-f36a-40dc-8ccf-124805636338D6z1nYkh13" d="M2.76-0.88L2.76-0.88L3-3.28L3.24-3.28Q4.80-1.92 6.76-1.16Q8.72-0.40 10.64-0.40L10.64-0.40Q13.36-0.40 15.04-1.90Q16.72-3.40 16.72-5.92L16.72-5.92Q16.72-7.32 16.10-8.52Q15.48-9.72 14.06-10.96Q12.64-12.20 10.16-13.64L10.16-13.64Q8.44-14.64 6.88-15.74Q5.32-16.84 4.32-18.30Q3.32-19.76 3.32-21.80L3.32-21.80Q3.32-24.84 5.52-26.70Q7.72-28.56 11.32-28.56L11.32-28.56Q12.92-28.56 14.76-28.22Q16.60-27.88 17.60-27.36L17.60-27.36L17.40-25.12L17.16-25.12Q14.88-27.60 11.32-27.60L11.32-27.60Q8.76-27.60 7.20-26.30Q5.64-25 5.64-22.80L5.64-22.80Q5.64-21.16 6.50-19.98Q7.36-18.80 8.72-17.86Q10.08-16.92 11.64-16.04L11.64-16.04Q13.44-15 15.14-13.84Q16.84-12.68 17.94-11.06Q19.04-9.44 19.04-7L19.04-7Q19.04-4.76 18-3.06Q16.96-1.36 15.06-0.40Q13.16 0.56 10.64 0.56L10.64 0.56Q9.04 0.56 6.88 0.16Q4.72-0.24 2.76-0.88Z M25.68 0L22.76 0L33.52-28L36-28L46.76 0L43.84 0L38.88-13.12L29.80-13.12L25.68 0ZM34.04-25.92L33.80-25.92L30.08-14.08L38.52-14.08L34.04-25.92Z M53.24-2.48L53.24-2.48L53.24-28L55.96-28L55.96-2.72Q55.96 2.32 54.56 5.12Q53.16 7.92 50.28 9.20L50.28 9.20L50.16 9Q51.76 7.88 52.50 5.22Q53.24 2.56 53.24-2.48Z M65.12 0L62.20 0L72.96-28L75.44-28L86.20 0L83.28 0L78.32-13.12L69.24-13.12L65.12 0ZM73.48-25.92L73.24-25.92L69.52-14.08L77.96-14.08L73.48-25.92Z M101.48 0L92.68 0L92.68-28L101.48-28Q106.12-28 109.56-26.24Q113.00-24.48 114.92-21.34Q116.84-18.20 116.84-14L116.84-14Q116.84-9.80 114.92-6.66Q113.00-3.52 109.56-1.76Q106.12 0 101.48 0L101.48 0ZM101.48-27.04L101.48-27.04L95.40-27.04L95.40-0.96L101.48-0.96Q107.28-0.96 110.54-4.40Q113.80-7.84 113.80-14L113.80-14Q113.80-20.16 110.54-23.60Q107.28-27.04 101.48-27.04Z M138.76 0L136.04 0L136.04-28L147.80-28L147.80-26.04L141.16-26.96Q139.36-27.20 138.76-27.20L138.76-27.20L138.76-14.68Q139.40-14.68 141.24-14.80L141.24-14.80L147.36-15.20L147.36-13.36L141.24-13.76Q139.40-13.88 138.76-13.88L138.76-13.88L138.76 0Z M152.16 0L149.24 0L160.00-28L162.48-28L173.24 0L170.32 0L165.36-13.12L156.28-13.12L152.16 0ZM160.52-25.92L160.28-25.92L156.56-14.08L165.00-14.08L160.52-25.92Z M179.72 0L179.72-28L185.08-28Q189.32-28 191.66-26.22Q194-24.44 194-21.24L194-21.24Q194-18.76 192.54-17.12Q191.08-15.48 188.32-14.92L188.32-14.92L188.32-14.68Q190.96-14.16 192.64-12.20Q194.32-10.24 195.16-7.36L195.16-7.36Q195.92-4.72 196.66-3.26Q197.40-1.80 198.30-1.16Q199.20-0.52 200.44-0.24L200.44-0.24L200.44 0L198.80 0Q197.04 0 195.90-0.64Q194.76-1.28 193.96-2.80Q193.16-4.32 192.44-7L192.44-7Q191.28-11.12 189.36-12.84Q187.44-14.56 184.68-14.56L184.68-14.56L184.44-14.56L184.44-15.28L184.68-15.28Q191.12-15.28 191.12-21.20L191.12-21.20Q191.12-27.04 185.08-27.04L185.08-27.04L182.44-27.04L182.44 0L179.72 0Z M208.12 0L205.40 0L205.40-28L208.12-28L208.12-15.04L224.92-15.04L224.92-28L227.64-28L227.64 0L224.92 0L224.92-14.08L208.12-14.08L208.12 0Z M236.80 0L233.88 0L244.64-28L247.12-28L257.88 0L254.96 0L250.00-13.12L240.92-13.12L236.80 0ZM245.16-25.92L244.92-25.92L241.20-14.08L249.64-14.08L245.16-25.92Z M273.16 0L264.36 0L264.36-28L273.16-28Q277.80-28 281.24-26.24Q284.68-24.48 286.60-21.34Q288.52-18.20 288.52-14L288.52-14Q288.52-9.80 286.60-6.66Q284.68-3.52 281.24-1.76Q277.80 0 273.16 0L273.16 0ZM273.16-27.04L273.16-27.04L267.08-27.04L267.08-0.96L273.16-0.96Q278.96-0.96 282.22-4.40Q285.48-7.84 285.48-14L285.48-14Q285.48-20.16 282.22-23.60Q278.96-27.04 273.16-27.04Z M299.64 0L296.92 0L296.92-28L299.64-28L299.64 0Z"/></g>
</svg>
</g><g opacity="1" transform="rotate(0 553.1049 153.5061)">
<svg width="142" height="1.6576" x="553.1049" y="153.5061" version="1.1" preserveAspectRatio="none" viewBox="0 0 142 1.6576">
  <defs><rect x="0" y="0" width="142" height="1.6576" rx="0px" ry="0px" id="id-a32461de-f36a-40dc-8ccf-124805636338q6WP-wJgV1675985779045"></rect></defs><use class="aq6WP-wJgVfillColora32461de-f36a-40dc-8ccf-124805636338 aq6WP-wJgVstrokeColor-stra32461de-f36a-40dc-8ccf-124805636338" style="stroke-width:0;" xlink:href="#id-a32461de-f36a-40dc-8ccf-124805636338q6WP-wJgV1675985779045"></use>
</svg>
</g><g opacity="0.28" transform="rotate(0 480.8619 153.5061)">
<svg width="101.3304" height="52.6027" x="480.8619" y="153.5061" version="1.1" preserveAspectRatio="none" viewBox="6.384004592895508 15.664000511169434 35.928001403808594 18.6510009765625">
  <g transform="matrix(1 0 0 1 0 0)" class="agefqfQdVNcolors-0a32461de-f36a-40dc-8ccf-124805636338"><path d="M33.729,21.985l0.605,0.605c0.532,0.532,0.825,1.244,0.825,2.005c0,1.583-1.287,2.87-2.87,2.87s-2.87-1.287-2.87-2.87  c0-0.758,0.307-1.495,0.841-2.021l0.503-0.495l-6.414-6.415l-6.414,6.415l0.502,0.495c0.535,0.526,0.841,1.263,0.841,2.021  c0,1.583-1.287,2.87-2.87,2.87s-2.87-1.287-2.87-2.87c0-0.761,0.293-1.473,0.825-2.005l0.606-0.605l-8.585-5.691l6.277,18.021  h23.375l6.276-18.021L33.729,21.985z M7.73,18.025l3.566,2.364c-0.217,1.775-0.462,4.984,0.054,8.029L7.73,18.025z"></path></g>
</svg>
</g><g opacity="1" transform="rotate(0 345.3436 168.1803)">
<svg width="37.7305" height="37.9285" x="345.3436" y="168.1803" version="1.1" preserveAspectRatio="none" viewBox="2.0000195503234863 2.0004000663757324 19.010345458984375 19.10999870300293">
  <g transform="matrix(1 0 0 1 0 0)" class="aaY2IAwvp1colors-0a32461de-f36a-40dc-8ccf-124805636338"><title>geo-2b</title><desc>Created with Sketch.</desc><g stroke-width="1" fill-rule="evenodd"><g><path d="M4.7716,2.7574 L7.3096,6.9864 L4.7716,11.2164 L2.5156,6.9864 L4.7716,2.7574 Z M10.3016,2.5004 L12.8436,6.7364 L7.7426,6.7364 L5.2006,2.5004 L10.3016,2.5004 Z M10.5976,11.9094 C10.6096,11.9004 10.6186,11.8924 10.6276,11.8804 C10.6376,11.8694 10.6496,11.8644 10.6576,11.8524 L13.4996,7.1154 C13.5066,7.1034 13.5006,7.0904 13.5046,7.0784 C13.5146,7.0564 13.5206,7.0394 13.5226,7.0164 C13.5246,7.0054 13.5356,6.9984 13.5356,6.9864 C13.5356,6.9754 13.5246,6.9684 13.5226,6.9574 C13.5206,6.9344 13.5146,6.9174 13.5046,6.8954 C13.5006,6.8834 13.5066,6.8704 13.4996,6.8584 L10.6576,2.1214 C10.6516,2.1114 10.6386,2.1114 10.6316,2.1034 C10.6116,2.0764 10.5856,2.0644 10.5566,2.0474 C10.5276,2.0314 10.5046,2.0164 10.4726,2.0124 C10.4616,2.0104 10.4546,2.0004 10.4426,2.0004 L4.7586,2.0004 C4.7456,2.0004 4.7366,2.0124 4.7236,2.0144 C4.7006,2.0184 4.6836,2.0214 4.6626,2.0304 C4.6516,2.0354 4.6406,2.0294 4.6306,2.0354 C4.6206,2.0414 4.6206,2.0544 4.6116,2.0614 C4.5926,2.0754 4.5816,2.0894 4.5676,2.1084 C4.5596,2.1184 4.5446,2.1204 4.5386,2.1324 L2.0116,6.8694 C2.0076,6.8774 2.0126,6.8864 2.0096,6.8944 C1.9966,6.9244 2.0006,6.9534 2.0006,6.9864 C2.0006,7.0204 1.9966,7.0494 2.0096,7.0794 C2.0126,7.0874 2.0076,7.0964 2.0116,7.1044 L4.5386,11.8414 C4.5466,11.8574 4.5616,11.8644 4.5726,11.8774 C4.5826,11.8894 4.5906,11.8994 4.6036,11.9094 C4.6126,11.9174 4.6186,11.9304 4.6296,11.9364 C4.6296,11.9374 4.6296,11.9374 4.6306,11.9384 L4.6306,11.9384 C4.6696,11.9614 4.7136,11.9734 4.7586,11.9734 L10.4426,11.9734 C10.5006,11.9734 10.5526,11.9474 10.5976,11.9094 L10.5976,11.9094 Z"></path><path d="M10.9713,13.5074 L15.4763,15.5164 L15.8233,20.4374 L11.5493,18.2664 L10.9713,13.5074 Z M15.3533,10.1254 L19.8663,12.1374 L15.6883,15.0634 L11.1753,13.0504 L15.3533,10.1254 Z M20.9993,17.6114 C21.0003,17.6004 21.0113,17.5934 21.0103,17.5814 L20.6213,12.0714 C20.6203,12.0584 20.6073,12.0514 20.6043,12.0394 C20.5993,12.0154 20.5943,11.9974 20.5833,11.9764 C20.5783,11.9664 20.5823,11.9544 20.5763,11.9454 C20.5683,11.9344 20.5543,11.9344 20.5443,11.9254 C20.5303,11.9094 20.5183,11.9004 20.5003,11.8884 C20.4893,11.8814 20.4863,11.8664 20.4733,11.8604 L15.4283,9.6104 C15.4173,9.6054 15.4073,9.6124 15.3963,9.6094 C15.3653,9.6004 15.3373,9.6044 15.3043,9.6074 C15.2713,9.6104 15.2423,9.6114 15.2133,9.6274 C15.2033,9.6324 15.1923,9.6284 15.1823,9.6344 L10.5263,12.8944 C10.5153,12.9024 10.5153,12.9174 10.5063,12.9264 C10.4893,12.9424 10.4763,12.9554 10.4653,12.9754 C10.4593,12.9844 10.4463,12.9864 10.4413,12.9974 C10.4363,13.0074 10.4443,13.0184 10.4403,13.0294 C10.4333,13.0514 10.4323,13.0704 10.4323,13.0934 C10.4313,13.1064 10.4203,13.1154 10.4223,13.1294 L11.0693,18.4584 C11.0703,18.4674 11.0793,18.4724 11.0813,18.4824 C11.0873,18.5084 11.1033,18.5264 11.1173,18.5494 C11.1363,18.5814 11.1543,18.6084 11.1843,18.6284 C11.1933,18.6344 11.1943,18.6464 11.2043,18.6514 L15.9913,21.0824 C16.0263,21.1014 16.0653,21.1094 16.1023,21.1094 C16.1033,21.1094 16.1033,21.1104 16.1033,21.1104 L16.1043,21.1104 C16.1103,21.1104 16.1163,21.1104 16.1213,21.1094 C16.1293,21.1094 16.1343,21.1004 16.1413,21.0994 C16.1763,21.0944 16.2103,21.0864 16.2393,21.0674 C16.2423,21.0654 16.2453,21.0664 16.2473,21.0644 L20.9043,17.8034 C20.9133,17.7974 20.9123,17.7844 20.9213,17.7774 C20.9453,17.7554 20.9563,17.7294 20.9713,17.6984 C20.9853,17.6694 20.9983,17.6444 20.9993,17.6114 L20.9993,17.6114 Z"></path></g></g></g>
</svg>
</g></svg></svg>